HIERARCHY
ROOT Hips
{
	OFFSET -0.001795 -0.223333 0.028219
	CHANNELS 6 Xposition Yposition Zposition Zrotation Yrotation Xrotation 
	JOINT LeftUpLeg
	{
		OFFSET 0.069520 -0.091406 -0.006815
		CHANNELS 3 Zrotation Yrotation Xrotation
		JOINT LeftLeg
		{
			OFFSET 0.034277 -0.375199 -0.004496
			CHANNELS 3 Zrotation Yrotation Xrotation
			JOINT LeftFoot
			{
				OFFSET -0.013596 -0.397961 -0.043693
				CHANNELS 3 Zrotation Yrotation Xrotation
				JOINT LeftToe
				{
					OFFSET 0.026358 -0.055791 0.119288
					CHANNELS 3 Zrotation Yrotation Xrotation
					End Site
					{
						OFFSET 0.000000 0.000000 0.000000
					}
				}
			}
		}
	}
	JOINT RightUpLeg
	{
		OFFSET -0.067670 -0.090522 -0.004320
		CHANNELS 3 Zrotation Yrotation Xrotation
		JOINT RightLeg
		{
			OFFSET -0.038290 -0.382569 -0.008850
			CHANNELS 3 Zrotation Yrotation Xrotation
			JOINT RightFoot
			{
				OFFSET 0.015774 -0.398415 -0.042312
				CHANNELS 3 Zrotation Yrotation Xrotation
				JOINT RightToe
				{
					OFFSET -0.025372 -0.048144 0.123348
					CHANNELS 3 Zrotation Yrotation Xrotation
					End Site
					{
						OFFSET 0.000000 0.000000 0.000000
					}
				}
			}
		}
	}
	JOINT Spine
	{
		OFFSET -0.002533 0.108963 -0.026696
		CHANNELS 3 Zrotation Yrotation Xrotation
		JOINT Spine1
		{
			OFFSET 0.005487 0.135180 0.001092
			CHANNELS 3 Zrotation Yrotation Xrotation
			JOINT Spine2
			{
				OFFSET 0.001457 0.052922 0.025425
				CHANNELS 3 Zrotation Yrotation Xrotation
				JOINT Neck
				{
					OFFSET -0.002778 0.213870 -0.042857
					CHANNELS 3 Zrotation Yrotation Xrotation
					JOINT Head
					{
						OFFSET 0.005152 0.064970 0.051349
						CHANNELS 3 Zrotation Yrotation Xrotation
						End Site
						{
							OFFSET 0.000000 0.000000 0.000000
						}
					}
				}
				JOINT LeftShoulder
				{
					OFFSET 0.078845 0.121749 -0.034090
					CHANNELS 3 Zrotation Yrotation Xrotation
					JOINT LeftArm
					{
						OFFSET 0.090977 0.030469 -0.008868
						CHANNELS 3 Zrotation Yrotation Xrotation
						JOINT LeftForeArm
						{
							OFFSET 0.259612 -0.012772 -0.027456
							CHANNELS 3 Zrotation Yrotation Xrotation
							JOINT LeftHand
							{
								OFFSET 0.249234 0.008986 -0.001171
								CHANNELS 3 Zrotation Yrotation Xrotation
								End Site
								{
									OFFSET 0.000000 0.000000 0.000000
								}
							}
						}
					}
				}
				JOINT RightShoulder
				{
					OFFSET -0.081759 0.118833 -0.038615
					CHANNELS 3 Zrotation Yrotation Xrotation
					JOINT RightArm
					{
						OFFSET -0.096012 0.032551 -0.009143
						CHANNELS 3 Zrotation Yrotation Xrotation
						JOINT RightForeArm
						{
							OFFSET -0.253742 -0.013329 -0.021401
							CHANNELS 3 Zrotation Yrotation Xrotation
							JOINT RightHand
							{
								OFFSET -0.255298 0.007772 -0.005559
								CHANNELS 3 Zrotation Yrotation Xrotation
								End Site
								{
									OFFSET 0.000000 0.000000 0.000000
								}
							}
						}
					}
				}
			}
		}
	}
}
MOTION
Frames: 12
Frame Time: 0.050000
0.891054 0.926819 0.033137 -3.757448 -16.722219 3.339232 5.269995 -0.167910 -6.535577 -3.976608 0.852860 9.242901 3.745537 7.764455 -4.986738 0.000000 0.000000 0.000000 -6.173219 1.301533 -15.102421 1.716178 1.467993 23.462860 -4.761142 -9.445355 -4.391477 0.000000 0.000000 0.000000 7.934983 -0.579677 4.922638 -2.436923 1.295522 1.877072 -1.928039 8.016016 9.623380 9.049776 -2.672763 -27.449192 0.000000 0.000000 0.000000 -26.707346 -11.448360 4.897288 -38.929220 -9.880197 -2.053189 -37.416279 -58.209243 24.219388 0.000000 0.000000 0.000000 26.308075 3.998241 -0.024563 55.108764 8.333817 -2.010973 -1.813829 44.275442 1.081793 0.000000 0.000000 0.000000 
0.908501 0.931898 0.035609 -4.100780 -14.582882 3.669024 4.406457 -0.225423 -5.373460 -3.027835 0.501633 6.303172 2.956306 5.939564 -3.468888 0.000000 0.000000 0.000000 -3.937250 1.380886 -14.932882 2.157655 1.120959 22.331153 -4.317018 -8.589538 -4.123633 0.000000 0.000000 0.000000 8.779976 -0.536241 3.970432 -1.961144 1.043023 1.925701 -2.755757 9.128811 8.531200 9.839188 -2.825171 -26.918589 0.000000 0.000000 0.000000 -25.956987 -12.433200 4.511214 -40.542447 -6.544274 -2.779389 -35.353310 -55.826705 21.319659 0.000000 0.000000 0.000000 27.724105 2.845445 0.065349 53.231049 8.373104 -2.126678 -2.143142 40.560811 1.129139 0.000000 0.000000 0.000000 
0.922675 0.934652 0.038173 -3.675821 -12.589510 3.605632 3.549543 -0.249499 -4.428301 -2.695267 0.376953 3.818220 2.086060 4.151289 -1.826923 0.000000 0.000000 0.000000 -2.490424 1.311187 -13.635292 2.421850 0.752722 19.869320 -3.578624 -6.966457 -3.693949 0.000000 0.000000 0.000000 9.113415 -0.469117 3.150747 -2.188003 1.139865 1.898453 -3.024806 8.288591 7.809540 9.881419 -2.930903 -26.094694 0.000000 0.000000 0.000000 -26.353798 -10.973681 3.462019 -41.736988 -4.691818 -3.366184 -31.007762 -51.774609 17.217284 0.000000 0.000000 0.000000 27.868346 2.362103 -0.185416 52.902594 7.387985 -2.504283 -2.231633 38.262645 1.013298 0.000000 0.000000 0.000000 
0.933542 0.935911 0.040789 -3.219575 -10.739608 2.886308 2.728403 -0.182243 -2.676156 -2.632953 0.345498 0.944992 1.150537 2.366083 -0.484972 0.000000 0.000000 0.000000 -1.825551 1.133779 -11.758103 1.799718 0.644034 17.208663 -3.379431 -6.775144 -3.223799 0.000000 0.000000 0.000000 9.286561 -0.476851 3.231056 -1.801177 0.912141 1.363054 -3.970494 8.149743 7.418479 9.880575 -3.007264 -24.892229 0.000000 0.000000 0.000000 -26.101135 -11.122837 3.153430 -42.777050 -3.186797 -3.813952 -27.147708 -46.583554 13.355379 0.000000 0.000000 0.000000 28.425371 1.016817 -0.709871 53.173676 6.532720 -2.975966 -1.006861 36.899163 1.452972 0.000000 0.000000 0.000000 
0.940695 0.936525 0.043154 -2.990679 -9.693173 2.739171 2.177398 -0.117314 -1.525711 -2.401197 0.319155 -0.777721 0.630883 1.435418 0.205014 0.000000 0.000000 0.000000 -0.868927 1.024982 -10.340461 1.641484 0.507492 14.971776 -3.436439 -7.525370 -2.105008 0.000000 0.000000 0.000000 9.206769 -0.370354 2.310902 -1.752465 0.877668 1.247804 -4.343064 7.745616 7.506916 9.795121 -3.047512 -24.287228 0.000000 0.000000 0.000000 -25.511358 -10.554975 2.753477 -44.260766 -2.485987 -4.201287 -22.596593 -41.130957 9.851982 0.000000 0.000000 0.000000 28.066595 0.025641 -1.260383 54.450817 5.487448 -3.504831 -0.279679 34.688192 1.585702 0.000000 0.000000 0.000000 
0.944664 0.937025 0.045009 -2.758820 -8.790933 2.303784 1.752979 -0.033901 -0.384506 -2.430573 0.333253 -2.126791 0.307879 0.903601 0.694528 0.000000 0.000000 0.000000 -0.220583 0.864577 -8.632681 1.233856 0.432959 12.563769 -2.785286 -6.426916 -1.014266 0.000000 0.000000 0.000000 8.911724 -0.311408 1.918090 -1.513245 0.742711 0.688158 -4.589062 7.444894 7.792296 9.426023 -2.932849 -23.749765 0.000000 0.000000 0.000000 -25.282447 -10.341813 2.578924 -44.917538 -2.244080 -4.369692 -18.891944 -36.411895 7.383039 0.000000 0.000000 0.000000 27.923620 -0.790911 -1.716312 54.749421 4.683051 -3.912163 0.915394 33.029387 1.837345 0.000000 0.000000 0.000000 
0.945880 0.937645 0.046205 -2.531728 -8.077251 1.861391 1.590068 0.042149 0.546638 -2.452174 0.348318 -3.315019 -0.377997 -0.102111 1.928201 0.000000 0.000000 0.000000 0.530187 0.739207 -7.288320 0.683876 0.438069 10.978809 -2.290016 -5.504899 -0.401006 0.000000 0.000000 0.000000 8.683787 -0.241632 1.424244 -1.352720 0.667834 1.034616 -5.057590 7.144307 7.693950 9.110514 -2.862976 -23.004307 0.000000 0.000000 0.000000 -25.073729 -10.048129 2.333438 -45.413391 -1.942922 -4.511260 -16.921926 -32.896506 6.023333 0.000000 0.000000 0.000000 27.719185 -1.517040 -2.108299 55.921452 4.120259 -4.230800 1.537022 31.960776 1.951795 0.000000 0.000000 0.000000 
0.945688 0.937970 0.047200 -2.262455 -7.891034 1.502065 1.392364 0.119091 1.422054 -2.390984 0.352715 -4.036028 -0.661440 -0.400104 2.700037 0.000000 0.000000 0.000000 0.772529 0.579112 -5.796702 0.239680 0.366028 8.287683 -1.368286 -3.745695 0.585094 0.000000 0.000000 0.000000 8.247871 -0.211692 1.292783 -1.389871 0.687468 1.151022 -5.347119 7.544849 7.045886 9.094500 -2.838925 -22.557756 0.000000 0.000000 0.000000 -25.119132 -9.675469 1.853237 -45.477298 -1.554729 -4.540984 -15.421275 -30.387613 5.078899 0.000000 0.000000 0.000000 27.508740 -1.882387 -2.133133 56.297119 3.864861 -4.352925 1.987058 30.492230 1.986187 0.000000 0.000000 0.000000 
0.944721 0.938203 0.047721 -1.921493 -7.385416 1.072971 1.054639 0.190044 2.165759 -2.333024 0.356084 -4.678061 -0.813010 -0.441174 3.368524 0.000000 0.000000 0.000000 0.932783 0.401717 -4.147592 -0.334098 0.318422 5.843511 -0.852920 -3.281666 2.050907 0.000000 0.000000 0.000000 7.853581 -0.164805 0.991712 -1.293285 0.639906 1.336955 -5.704034 7.676047 6.657830 8.979792 -2.795802 -22.042909 0.000000 0.000000 0.000000 -25.623635 -9.109931 1.274659 -45.177079 -1.155351 -4.556784 -14.435627 -28.954785 4.539525 0.000000 0.000000 0.000000 26.948997 -2.013246 -2.013867 56.947860 3.487509 -4.555969 2.491786 29.347712 2.044118 0.000000 0.000000 0.000000 
0.943356 0.937990 0.048083 -1.797619 -7.165136 0.651662 1.130136 0.261979 2.972034 -2.253829 0.358951 -5.242217 -1.214495 -1.028492 3.910406 0.000000 0.000000 0.000000 1.055377 0.228217 -2.532703 -0.648020 0.252873 3.845119 -0.346300 -2.441456 2.720555 0.000000 0.000000 0.000000 7.572998 -0.146105 0.937042 -1.129061 0.556411 1.268655 -6.246123 8.390468 6.265154 9.288323 -2.968532 -21.352136 0.000000 0.000000 0.000000 -25.739000 -8.788836 0.693215 -45.023745 -1.061060 -4.440403 -13.711660 -27.307482 4.036320 0.000000 0.000000 0.000000 26.842773 -2.377999 -1.917176 56.971390 3.036605 -4.803818 3.271968 28.434337 2.199106 0.000000 0.000000 0.000000 
0.941611 0.937687 0.048191 -1.856588 -7.179622 0.566522 1.186711 0.281638 3.200991 -1.960248 0.337247 -5.315614 -1.097185 -0.811216 3.868843 0.000000 0.000000 0.000000 1.332474 0.166177 -1.996054 -0.839394 0.239420 3.151417 -0.258575 -2.312779 2.860144 0.000000 0.000000 0.000000 7.459216 -0.102803 0.562859 -1.156177 0.568800 1.185556 -6.290315 8.879272 6.183769 9.386108 -2.990154 -21.212949 0.000000 0.000000 0.000000 -26.086624 -8.558817 0.329969 -44.720513 -0.973958 -4.365399 -12.995630 -26.510783 3.722249 0.000000 0.000000 0.000000 27.054725 -2.385837 -1.759065 56.579789 2.941427 -4.870314 3.239669 27.594183 2.134496 0.000000 0.000000 0.000000 
0.939868 0.937563 0.048350 -1.920477 -7.343193 0.554109 1.430130 0.295559 3.419601 -1.874638 0.336281 -5.528803 -1.061038 -0.640086 4.153052 0.000000 0.000000 0.000000 1.441279 0.149352 -1.864635 -0.989237 0.228639 2.624989 -0.042579 -2.091068 3.354910 0.000000 0.000000 0.000000 7.326307 -0.064324 0.219176 -1.007212 0.493609 0.951166 -6.504994 9.528613 6.030159 9.835023 -3.205522 -21.038789 0.000000 0.000000 0.000000 -26.086454 -8.359307 -0.024827 -44.743669 -1.078548 -4.255177 -12.550211 -25.570624 3.454562 0.000000 0.000000 0.000000 27.492528 -2.406051 -1.573373 56.305157 2.859258 -4.955656 2.769478 27.128275 2.016272 0.000000 0.000000 0.000000 
